<?xml version="1.0" encoding="UTF-8"?>
<svg version="1.1" xmlns="http://www.w3.org/2000/svg" width="1080" height="1080">
<path d="M0 0 C34.90819872 -0.76450769 67.32505291 10.88955572 93.07348633 34.75317383 C115.27864038 56.37422189 128.97784692 86.82913733 129.44311053 117.88732487 C129.45078372 119.62980445 129.45316918 121.37231276 129.4511652 123.11480808 C129.45400742 124.08587731 129.45684964 125.05694653 129.45977798 126.0574421 C129.4680902 129.30657835 129.46939046 132.55567878 129.47071838 135.80482483 C129.4752861 138.15960459 129.48028643 140.51438354 129.48568195 142.86916155 C129.49782699 148.65865201 129.50540056 154.44813586 129.51104873 160.23763601 C129.51807701 167.17422242 129.53084908 174.11079524 129.54382664 181.04737265 C129.56761529 193.84795848 129.58682866 206.64854735 129.60342598 219.44914436 C129.61987216 232.12161742 129.63835708 244.7940848 129.65955925 257.46655083 C129.66087686 258.25476349 129.66219446 259.04297615 129.663552 259.85507404 C129.67025417 263.85807902 129.67699271 267.86108393 129.68374526 271.86408883 C129.73149638 300.21041244 129.77468483 328.55674135 129.81518555 356.90307617 C129.85453958 384.43953842 129.89596312 411.97599629 129.94018555 439.51245117 C129.94154808 440.36138525 129.94291061 441.21031933 129.94431442 442.08497868 C129.95799991 450.61039672 129.97172744 459.13581469 129.98548577 467.66123262 C130.0135116 485.02817792 130.04125685 502.39512368 130.0688324 519.7620697 C130.0701006 520.56055729 130.0713688 521.35904488 130.07267542 522.18172906 C130.15731789 575.49484351 130.23539918 628.80796793 130.3125 682.12109375 C130.76052979 681.33573242 131.20855957 680.55037109 131.67016602 679.74121094 C133.36762564 676.76634028 135.06560642 673.79176826 136.76391602 670.81738281 C137.49230803 669.54145639 138.22050511 668.26541866 138.94848633 666.98925781 C143.69228493 658.67369643 148.47199408 650.38089932 153.3125 642.12109375 C157.02014157 635.79217209 160.7049461 629.45249642 164.3203125 623.0703125 C177.8333736 599.21816735 191.55030244 576.2923101 210.3125 556.12109375 C211.48372148 554.77086462 212.65057233 553.41682884 213.8125 552.05859375 C220.48322484 544.4392796 227.69677141 537.67515878 235.66064453 531.42236328 C236.82527024 530.50491501 237.98463261 529.58076593 239.14013672 528.65185547 C250.27551809 519.70841243 261.90817791 512.18168997 274.3125 505.12109375 C274.9533252 504.74645996 275.59415039 504.37182617 276.25439453 503.98583984 C331.76550536 471.54981649 401.33170805 465.7518236 462.90625 481.2421875 C481.91923274 486.43002865 498.19444677 497.64678823 512.3125 511.12109375 C512.85382568 511.63615479 513.39515137 512.15121582 513.95288086 512.68188477 C518.20299175 516.81408295 521.84288198 521.18091216 525.375 525.93359375 C526.51228245 527.44196326 527.65032898 528.94975692 528.7890625 530.45703125 C529.36946289 531.22756836 529.94986328 531.99810547 530.54785156 532.79199219 C533.41377614 536.57463199 536.33107571 540.3167921 539.25 544.05859375 C539.83080322 544.80407471 540.41160645 545.54955566 541.01000977 546.31762695 C542.18856599 547.83026211 543.36735847 549.34271321 544.54638672 550.85498047 C547.47137581 554.60805605 550.39174184 558.36472525 553.3125 562.12109375 C556.85818599 566.68061423 560.40449898 571.23964217 563.953125 575.796875 C569.88721408 583.41911012 575.8052877 591.05248825 581.6875 598.71484375 C584.87877975 602.86350743 588.096713 606.99141856 591.3125 611.12109375 C596.12601723 617.30255498 600.91674879 623.50031257 605.6875 629.71484375 C608.87877975 633.86350743 612.096713 637.99141856 615.3125 642.12109375 C619.32715625 647.27666727 623.33351023 652.43793603 627.3125 657.62109375 C633.60679617 665.81807749 639.96263322 673.96713369 646.3125 682.12109375 C653.46017299 691.29952884 660.60136369 700.48186999 667.68359375 709.7109375 C669.6866353 712.31512634 671.70259556 714.90899199 673.72265625 717.5 C674.32658203 718.27472656 674.93050781 719.04945313 675.55273438 719.84765625 C676.71840976 721.34191966 677.8849897 722.83547815 679.05273438 724.328125 C682.42784113 728.65457764 685.74900858 733.01880067 689.03686523 737.41186523 C689.44992668 737.96321892 689.86298813 738.5145726 690.28856659 739.08263397 C691.29684115 740.42856497 692.30471241 741.77479809 693.3125 743.12109375 C693.31290018 742.57729482 693.31330037 742.0334959 693.31371268 741.47321822 C693.35740637 682.24253364 693.40480873 623.01185264 693.47148132 563.78118896 C693.47247689 562.89581545 693.47347246 562.01044194 693.47449819 561.09823893 C693.49615891 541.85468185 693.51848176 522.61112558 693.54148628 503.36757006 C693.55276437 493.92994268 693.56389621 484.49231514 693.57495117 475.0546875 C693.57605374 474.11555178 693.5771563 473.17641607 693.57829228 472.2088217 C693.61393321 441.79248144 693.63992496 411.37614228 693.66088969 380.95978867 C693.68249259 349.69172682 693.71387643 318.42368957 693.75749113 287.15565031 C693.76365298 282.73486797 693.76970353 278.3140855 693.77568626 273.89330292 C693.77686715 273.02326657 693.77804803 272.15323023 693.77926469 271.25682915 C693.79795462 257.27608843 693.80639532 243.29535958 693.81096124 229.3146079 C693.81577662 215.24443312 693.83148968 201.17430342 693.85816566 187.10415283 C693.87366934 178.75442161 693.88097834 170.4047794 693.87626929 162.0550346 C693.87366802 155.80390086 693.88676759 149.55288912 693.90573552 143.30178568 C693.91097881 140.78462828 693.9112644 138.26745423 693.90589563 135.7502971 C693.83227484 97.2953751 702.49411548 63.51691816 729.9296875 35.3515625 C754.43439069 11.3223237 786.88628746 -0.16548971 820.92431641 -0.06005859 C853.77609067 0.45384962 884.43337074 11.39180518 907.90771484 34.73535156 C909.18068058 35.99106125 910.4889448 37.2107365 911.80078125 38.42578125 C924.13726446 50.05914884 932.85002746 65.72180693 938.625 81.55859375 C938.85533936 82.17702148 939.08567871 82.79544922 939.32299805 83.43261719 C944.8166921 99.40767467 944.75045156 115.45746755 944.72468567 132.14257812 C944.73156499 134.77504238 944.73962182 137.40747944 944.74910372 140.0399332 C944.76728325 145.74272661 944.77453361 151.44545036 944.77440834 157.14827156 C944.77425938 165.62927377 944.79126501 174.11018277 944.81157071 182.59115759 C944.84729782 197.74431175 944.86621082 212.89745139 944.87807711 228.05064092 C944.88853611 241.31674235 944.90495261 254.58282052 944.92719078 267.84890747 C944.92866116 268.73020024 944.93013154 269.611493 944.93164647 270.51949161 C944.93762657 274.09738021 944.94363757 277.67526875 944.94969289 281.25315722 C945.00640275 314.79921155 945.04654266 348.34526721 945.07867835 381.89135312 C945.10727668 411.65399403 945.14845718 441.41659093 945.20092773 471.17919922 C945.21434337 478.79719027 945.2277512 486.41518134 945.24104786 494.03317261 C945.24350498 495.44024011 945.24350498 495.44024011 945.24601174 496.87573321 C945.28933016 521.78435731 945.32300855 546.69299425 945.35365504 571.60163689 C945.35696423 574.2845306 945.3602752 576.96742431 945.36358971 579.65031801 C945.36578607 581.42988855 945.36797492 583.2094591 945.37015621 584.98902966 C945.38539877 597.36109367 945.4043537 609.73314704 945.4258885 622.10520161 C945.4536518 638.06072138 945.47472122 654.01622656 945.48421214 669.97176844 C945.48941504 678.39627931 945.50005172 686.82073955 945.51884662 695.24523131 C945.53086483 700.89082815 945.53533008 706.53640026 945.53395568 712.1820096 C945.5333735 715.38658837 945.5368884 718.59106057 945.54734788 721.79562473 C945.61326219 742.98628861 944.48029379 763.92756641 941.125 784.87109375 C940.96834869 785.86044418 940.96834869 785.86044418 940.80853271 786.86978149 C935.17445291 822.11391788 924.00178698 855.59152557 907.3125 887.12109375 C906.97283203 887.76852539 906.63316406 888.41595703 906.28320312 889.08300781 C896.62964479 907.33847985 884.32475841 923.53993522 870.4375 938.77734375 C868.48755276 940.92802086 866.58223871 943.10934346 864.6875 945.30859375 C859.01516168 951.7838658 852.96077544 957.35665736 846.2421875 962.74609375 C844.32653316 964.29905086 842.43440588 965.88160832 840.5703125 967.49609375 C783.00132127 1017.25101138 698.66346702 1042.36449229 623.7265625 1044.9140625 C620.87632538 1045.0145793 618.24082283 1045.27189862 615.3984375 1045.671875 C611.61593242 1046.07979221 608.97210374 1046.1862023 605.3125 1045.12109375 C601.32568622 1041.52452364 598.49359979 1037.51422786 595.57861328 1033.03173828 C593.69914114 1030.19549667 591.6008492 1027.54583346 589.5 1024.87109375 C588.67974984 1023.80433753 587.86078265 1022.73659383 587.04296875 1021.66796875 C583.81822458 1017.47110335 580.56457543 1013.29679173 577.3125 1009.12109375 C572.49893691 1002.93966844 567.70825093 996.74187457 562.9375 990.52734375 C559.74622009 986.37867986 556.52825864 982.25079128 553.3125 978.12109375 C546.83023201 969.79557215 540.39175899 961.43772797 533.96875 953.06640625 C528.50124534 945.9479992 523.00000086 938.85660562 517.48535156 931.7746582 C513.28210334 926.3744774 509.10456695 920.95549675 504.9375 915.52734375 C501.74622025 911.37868007 498.528287 907.25076894 495.3125 903.12109375 C490.49898277 896.93963252 485.70825121 890.74187493 480.9375 884.52734375 C477.74622009 880.37867986 474.52825864 876.25079128 471.3125 872.12109375 C464.83023201 863.79557215 458.39175899 855.43772797 451.96875 847.06640625 C446.50124534 839.9479992 441.00000086 832.85660562 435.48535156 825.7746582 C431.28210334 820.3744774 427.10456695 814.95549675 422.9375 809.52734375 C419.74622025 805.37868007 416.528287 801.25076894 413.3125 797.12109375 C409.29784375 791.96552023 405.29148977 786.80425147 401.3125 781.62109375 C397.14237589 776.19088206 392.95051857 770.77782797 388.75 765.37109375 C388.12931641 764.57123047 387.50863281 763.77136719 386.86914062 762.94726562 C386.29228516 762.20541016 385.71542969 761.46355469 385.12109375 760.69921875 C384.60345459 760.0330957 384.08581543 759.36697266 383.55249023 758.68066406 C382.40062345 757.1714115 382.40062345 757.1714115 381.3125 756.12109375 C380.96171387 756.75273438 380.61092773 757.384375 380.24951172 758.03515625 C372.60264861 771.7881151 364.83159961 785.45478426 356.875 799.03125 C353.1803669 805.33679794 349.52397319 811.66403811 345.875 817.99609375 C345.25246338 819.07624756 344.62992676 820.15640137 343.98852539 821.26928711 C342.72673174 823.45905709 341.46509466 825.6489173 340.20361328 827.83886719 C337.07569852 833.26769317 333.94391552 838.69428656 330.8125 844.12109375 C329.56248121 846.28774958 328.31248122 848.45441625 327.0625 850.62109375 C299.5625 898.28776042 272.0625 945.95442708 244.5625 993.62109375 C243.94286377 994.69520508 243.32322754 995.76931641 242.68481445 996.87597656 C241.44402967 999.02651918 240.20298465 1001.17691167 238.96166992 1003.32714844 C236.04230526 1008.38487188 233.12553791 1013.44403868 230.21817017 1018.50866699 C228.85075234 1020.89032877 227.48182961 1023.27112395 226.11279297 1025.65185547 C225.15185447 1027.32435396 224.19308328 1028.99809711 223.234375 1030.671875 C222.09100124 1032.6595863 220.93315779 1034.63908074 219.75756836 1036.60791016 C218.31453687 1038.99802886 218.31453687 1038.99802886 217.44750977 1041.17724609 C216.6796875 1042.84765625 216.6796875 1042.84765625 214.3125 1045.12109375 C210.05089078 1045.8396476 205.92110092 1045.53754205 201.625 1045.24609375 C200.34496094 1045.17801514 199.06492187 1045.10993652 197.74609375 1045.03979492 C108.12122021 1039.91163641 15.11395658 1006.38261338 -47 939.55859375 C-61.70802483 922.88622504 -74.3972734 904.82257159 -84.6875 885.12109375 C-85.04295898 884.44723633 -85.39841797 883.77337891 -85.76464844 883.07910156 C-101.93138453 852.27881281 -112.06686285 819.18473416 -117.5 784.87109375 C-117.69480957 783.65510498 -117.88961914 782.43911621 -118.09033203 781.1862793 C-121.22679581 760.21342306 -121.98014318 739.28093148 -121.91696167 718.10392761 C-121.91656646 715.46100399 -121.91696762 712.81809105 -121.91831791 710.17516881 C-121.91963213 704.47442006 -121.91356272 698.77371825 -121.90236855 693.07298088 C-121.88573028 684.59546125 -121.88079194 676.11796138 -121.87791403 667.64042735 C-121.87202024 651.61543694 -121.85235105 635.59048179 -121.82806377 619.56551006 C-121.80934685 607.19019891 -121.79394156 594.81488779 -121.78082657 582.43956947 C-121.77700392 578.8675956 -121.77316654 575.29562174 -121.76932538 571.72364789 C-121.76837126 570.83548669 -121.76741714 569.94732549 -121.76643412 569.03225031 C-121.73950803 544.08436105 -121.7081531 519.13648053 -121.66786003 494.18860912 C-121.66634601 493.24982495 -121.664832 492.31104078 -121.6632721 491.3438086 C-121.65559068 486.5864247 -121.64787593 481.82904086 -121.64015304 477.07165702 C-121.63862021 476.12693748 -121.63708738 475.18221794 -121.6355081 474.20887054 C-121.63240809 472.29842609 -121.62930541 470.38798165 -121.62620004 468.47753721 C-121.57796992 438.73380816 -121.54599805 408.99009908 -121.52636719 379.24633789 C-121.50426521 345.77911146 -121.46872087 312.31193576 -121.4142276 278.84474546 C-121.40846227 275.27434344 -121.40274784 271.70394135 -121.39706802 268.1335392 C-121.39566156 267.25450309 -121.39425511 266.37546698 -121.39280603 265.46979341 C-121.37052712 251.35255801 -121.3609337 237.23534165 -121.3557932 223.11809085 C-121.35026838 208.92762165 -121.32979104 194.73723311 -121.29436211 180.5468066 C-121.27375808 172.12784776 -121.26402029 163.70904549 -121.27025466 155.29006283 C-121.27331855 149.65478537 -121.26174047 144.01965607 -121.23865604 138.3844255 C-121.22593715 135.18173495 -121.22140298 131.97942941 -121.23034512 128.77671661 C-121.32144581 92.34276317 -111.26179655 61.75616129 -85.4375 35.43359375 C-74.23823764 24.3483797 -62.02213829 16.56123952 -47.6875 10.12109375 C-46.62015625 9.63769531 -45.5528125 9.15429688 -44.453125 8.65625 C-30.37993694 2.78051539 -15.15179026 0.49756938 0 0 Z " fill="#009068" transform="translate(127.6875,16.87890625)"/>
<path d="M0 0 C34.90819872 -0.76450769 67.32505291 10.88955572 93.07348633 34.75317383 C114.85418027 55.9609272 128.4986887 85.71513513 129.40296744 116.16768068 C129.43587075 119.80582036 129.43694495 123.44270738 129.42716789 127.08098602 C129.42699709 128.49501444 129.42726888 129.90904297 129.42794079 131.32307124 C129.42851548 135.20734368 129.42284393 139.09158564 129.41616211 142.97585144 C129.41001385 147.2023507 129.40974228 151.42885097 129.40874207 155.65535402 C129.40619552 163.06265535 129.39996468 170.46994642 129.39133072 177.87724304 C129.37852788 188.89252851 129.37153761 199.90781225 129.36587375 210.92310344 C129.35683104 228.32023042 129.34433474 245.71735278 129.32944842 263.11447567 C129.30584673 290.73541252 129.29155235 318.35634816 129.28028178 345.97729252 C129.2759122 356.605897 129.27127566 367.23450138 129.26667976 377.86310577 C129.26591697 379.63439867 129.26591697 379.63439867 129.26513877 381.44147525 C129.25300455 409.55147929 129.23863986 437.661482 129.22314453 465.77148438 C129.22246937 467.00145556 129.2217942 468.23142674 129.22109858 469.49866978 C129.2053091 498.19117287 129.18738684 526.88367328 129.16479492 555.57617188 C129.16382365 556.8099469 129.16285238 558.04372192 129.16185168 559.31488407 C129.15400502 569.25966692 129.14608299 579.2044497 129.13814141 589.14923247 C129.10545171 630.15894797 129.08284649 671.16865866 129.07184704 712.17838592 C129.07028232 717.97102054 129.06858792 723.76365512 129.06680679 729.55628967 C129.06645802 730.69630728 129.06610925 731.83632488 129.06574992 733.01088847 C129.05981371 751.35172662 129.04301719 769.69253954 129.0219651 788.03336591 C129.00099255 806.47005859 128.9907533 824.90673183 128.99150907 843.34343666 C128.991616 854.29334133 128.98332576 865.24316468 128.96297058 876.19305083 C128.9501872 883.51332083 128.94836628 890.83354136 128.95532873 898.15381906 C128.95897893 902.32077087 128.95797184 906.48757156 128.94352923 910.65450329 C128.8224186 947.65672077 134.67837618 980.76872478 160.81640625 1008.71875 C176.59591305 1023.90559927 196.40134882 1033.21595139 217.3125 1039.12109375 C215.4375 1043.99609375 215.4375 1043.99609375 214.3125 1045.12109375 C127.28314406 1048.41394341 31.94526845 1013.12205398 -31.99121094 954.42675781 C-53.43867432 934.43541641 -71.11839738 911.10024708 -84.6875 885.12109375 C-85.04295898 884.44723633 -85.39841797 883.77337891 -85.76464844 883.07910156 C-101.93138453 852.27881281 -112.06686285 819.18473416 -117.5 784.87109375 C-117.69480957 783.65510498 -117.88961914 782.43911621 -118.09033203 781.1862793 C-121.22679581 760.21342306 -121.98014318 739.28093148 -121.91696167 718.10392761 C-121.91656646 715.46100399 -121.91696762 712.81809105 -121.91831791 710.17516881 C-121.91963213 704.47442006 -121.91356272 698.77371825 -121.90236855 693.07298088 C-121.88573028 684.59546125 -121.88079194 676.11796138 -121.87791403 667.64042735 C-121.87202024 651.61543694 -121.85235105 635.59048179 -121.82806377 619.56551006 C-121.80934685 607.19019891 -121.79394156 594.81488779 -121.78082657 582.43956947 C-121.77700392 578.8675956 -121.77316654 575.29562174 -121.76932538 571.72364789 C-121.76837126 570.83548669 -121.76741714 569.94732549 -121.76643412 569.03225031 C-121.73950803 544.08436105 -121.7081531 519.13648053 -121.66786003 494.18860912 C-121.66634601 493.24982495 -121.664832 492.31104078 -121.6632721 491.3438086 C-121.65559068 486.5864247 -121.64787593 481.82904086 -121.64015304 477.07165702 C-121.63862021 476.12693748 -121.63708738 475.18221794 -121.6355081 474.20887054 C-121.63240809 472.29842609 -121.62930541 470.38798165 -121.62620004 468.47753721 C-121.57796992 438.73380816 -121.54599805 408.99009908 -121.52636719 379.24633789 C-121.50426521 345.77911146 -121.46872087 312.31193576 -121.4142276 278.84474546 C-121.40846227 275.27434344 -121.40274784 271.70394135 -121.39706802 268.1335392 C-121.39566156 267.25450309 -121.39425511 266.37546698 -121.39280603 265.46979341 C-121.37052712 251.35255801 -121.3609337 237.23534165 -121.3557932 223.11809085 C-121.35026838 208.92762165 -121.32979104 194.73723311 -121.29436211 180.5468066 C-121.27375808 172.12784776 -121.26402029 163.70904549 -121.27025466 155.29006283 C-121.27331855 149.65478537 -121.26174047 144.01965607 -121.23865604 138.3844255 C-121.22593715 135.18173495 -121.22140298 131.97942941 -121.23034512 128.77671661 C-121.32144581 92.34276317 -111.26179655 61.75616129 -85.4375 35.43359375 C-74.23823764 24.3483797 -62.02213829 16.56123952 -47.6875 10.12109375 C-46.62015625 9.63769531 -45.5528125 9.15429688 -44.453125 8.65625 C-30.37993694 2.78051539 -15.15179026 0.49756938 0 0 Z " fill="#01CC9E" transform="translate(127.6875,16.87890625)"/>
<path d="M0 0 C0.81984375 0.78246094 1.6396875 1.56492187 2.484375 2.37109375 C3.28983765 3.13498413 3.28983765 3.13498413 4.11157227 3.91430664 C8.52043374 8.19161485 12.26113812 12.75934276 15.921875 17.68359375 C17.04861745 19.17903507 18.17621992 20.67382879 19.3046875 22.16796875 C19.84512695 22.88533203 20.38556641 23.60269531 20.94238281 24.34179688 C24.03972188 28.4179657 27.25440103 32.39949434 30.484375 36.37109375 C30.154375 37.03109375 29.824375 37.69109375 29.484375 38.37109375 C27.48252397 38.97917482 25.45568912 39.5054103 23.421875 39.99609375 C-9.42726086 49.04295942 -28.14194996 72.5143253 -44.265625 100.80859375 C-46.00608885 103.87605661 -47.74113436 106.94657917 -49.47634888 110.01701355 C-52.79097252 115.87423273 -56.17630764 121.68911739 -59.578125 127.49609375 C-66.30850118 138.99935274 -72.97218599 150.54033369 -79.62451172 162.08886719 C-82.75242648 167.51769317 -85.88420948 172.94428656 -89.015625 178.37109375 C-90.26564379 180.53774958 -91.51564378 182.70441625 -92.765625 184.87109375 C-100.265625 197.87109375 -100.265625 197.87109375 -102.14233398 201.1237793 C-103.38695704 203.28130976 -104.63126264 205.43902339 -105.87524414 207.59692383 C-108.7469188 212.57747868 -111.62133647 217.55635932 -114.50776672 222.52838135 C-122.7492478 236.64734768 -122.7492478 236.64734768 -130.578125 250.99609375 C-134.43027061 258.34416506 -138.62097628 265.47930172 -142.82055664 272.63330078 C-147.44343475 280.51346989 -151.99476743 288.43220294 -156.515625 296.37109375 C-162.02759626 306.04628162 -167.59987592 315.68392409 -173.2265625 325.29296875 C-177.70728646 332.95683145 -182.12069252 340.6578821 -186.515625 348.37109375 C-192.02826335 358.04590594 -197.59987067 367.68391512 -203.2265625 377.29296875 C-207.70728646 384.95683145 -212.12069252 392.6578821 -216.515625 400.37109375 C-222.02826335 410.04590594 -227.59987067 419.68391512 -233.2265625 429.29296875 C-237.70728646 436.95683145 -242.12069252 444.6578821 -246.515625 452.37109375 C-252.02322489 462.03706332 -257.58948679 471.66641425 -263.21118164 481.26660156 C-268.51323449 490.33512767 -273.72594667 499.45354173 -278.92382812 508.58203125 C-283.07658478 515.87176236 -287.27370162 523.13289766 -291.515625 530.37109375 C-297.02755756 529.84004377 -301.89761735 528.81574597 -307.078125 526.80859375 C-307.76358398 526.5453833 -308.44904297 526.28217285 -309.15527344 526.01098633 C-321.43531897 521.15048687 -332.28400184 514.75554093 -342.515625 506.37109375 C-343.37800781 505.67371094 -344.24039063 504.97632813 -345.12890625 504.2578125 C-366.38332069 486.17668545 -379.16216344 457.88378239 -381.515625 430.37109375 C-381.93570122 422.25124769 -381.92317461 414.11419657 -381.98071289 405.9855957 C-382.00474222 403.53475353 -382.02939202 401.08391738 -382.05461121 398.63308716 C-382.13242367 390.6252769 -382.18851678 382.6173966 -382.23828125 374.609375 C-382.24256373 373.92576069 -382.24684621 373.24214639 -382.25125846 372.53781649 C-382.33598732 358.91157855 -382.40792953 345.28528604 -382.45707035 331.65887165 C-382.46802476 328.67419173 -382.47915534 325.68951253 -382.49047852 322.70483398 C-382.49328217 321.96320785 -382.49608582 321.22158172 -382.49897444 320.45748206 C-382.54594727 308.4708756 -382.65176341 296.48552348 -382.78118796 284.4995539 C-382.91357088 272.13553265 -382.98780512 259.77215502 -383.00829309 247.40743607 C-383.02125482 240.48814721 -383.05910714 233.57103652 -383.16270638 226.6524601 C-383.94982393 172.32629202 -383.94982393 172.32629202 -368.30048943 152.66704369 C-365.6519702 149.26013643 -363.60803105 145.57117928 -361.515625 141.80859375 C-360.73059307 140.47938212 -359.94197833 139.1522744 -359.1484375 137.828125 C-356.48703947 133.34440571 -353.88956634 128.82473077 -351.29174805 124.30395508 C-348.04412752 118.65325384 -344.78342324 113.01014699 -341.515625 107.37109375 C-341.17452698 106.78235474 -340.83342896 106.19361572 -340.48199463 105.58703613 C-324.4050151 77.86265077 -324.4050151 77.86265077 -315.515625 66.37109375 C-314.86851562 65.52675781 -314.22140625 64.68242188 -313.5546875 63.8125 C-311.58170687 61.29594308 -309.56206914 58.82829371 -307.515625 56.37109375 C-307.08024414 55.84547852 -306.64486328 55.31986328 -306.19628906 54.77832031 C-295.94945973 42.44977411 -285.19383578 31.24980113 -272.515625 21.37109375 C-271.2601539 20.3636086 -270.004964 19.35577298 -268.75 18.34765625 C-258.22998523 9.99740237 -247.17802238 3.00938307 -235.515625 -3.62890625 C-234.8747998 -4.00354004 -234.23397461 -4.37817383 -233.57373047 -4.76416016 C-168.0910839 -43.02671016 -59.75569627 -54.50131608 0 0 Z " fill="#009068" transform="translate(637.515625,525.62890625)"/>
<path d="M0 0 C8.40653692 8.22862079 15.47105152 17.51882908 22.47143555 26.93920898 C26.58310356 32.46837733 30.81014167 37.89505145 35.08203125 43.30078125 C43.27443258 53.66800603 51.34326755 64.13330758 59.390625 74.61328125 C64.89422945 81.76753773 70.45414885 88.87848858 76 96 C83.14879829 105.17988011 90.28995283 114.36454382 97.375 123.59375 C100.56627975 127.74241368 103.784213 131.87032481 107 136 C111.81351723 142.18146123 116.60424879 148.37921882 121.375 154.59375 C124.56628058 158.74241475 127.78435929 162.87020963 131 167 C139.69646865 178.17532486 139.69646865 178.17532486 143.375 182.9375 C144.08398438 183.85402344 144.79296875 184.77054688 145.5234375 185.71484375 C145.8919624 186.22097608 146.26048731 186.7271084 146.64017963 187.24857807 C148.03584381 189.10613789 148.03584381 189.10613789 149.95713329 191.05967236 C157.56797419 199.82230418 157.12232766 207.98088069 156.98754883 218.98364258 C156.99348703 220.89044512 157.00287456 222.79723954 157.01542664 224.70401001 C157.03898859 229.86012713 157.0126766 235.01487518 156.97580934 240.17087007 C156.94422043 245.59378266 156.95438409 251.01664021 156.95866394 256.43962097 C156.95949225 265.55624651 156.92873496 274.67234118 156.87817383 283.78881836 C156.82030895 294.27534329 156.80779042 304.76113971 156.8210333 315.24779969 C156.83311349 325.38568714 156.81649646 335.52332627 156.78589439 345.66116905 C156.77319323 349.94967329 156.76945771 354.23803945 156.77317238 358.52655983 C156.78727406 399.67316198 152.26256128 434.69253877 122 465 C121.29617188 465.71542969 120.59234375 466.43085937 119.8671875 467.16796875 C104.11489458 482.17157855 83.69672295 489.80186472 63 495 C56.84805569 487.40823893 50.77170904 479.77715848 44.9375 471.9375 C40.35613992 465.78208478 35.67550163 459.71909274 30.91796875 453.69921875 C22.73075168 443.33855449 14.66593263 432.88062277 6.625 422.40625 C3.43372025 418.25758632 0.215787 414.12967519 -3 410 C-7.81351723 403.81853877 -12.60424879 397.62078118 -17.375 391.40625 C-20.56627991 387.25758611 -23.78424136 383.12969753 -27 379 C-33.48226799 370.6744784 -39.92074101 362.31663422 -46.34375 353.9453125 C-51.81125466 346.82690545 -57.31249914 339.73551187 -62.82714844 332.65356445 C-67.03039666 327.25338365 -71.20793305 321.834403 -75.375 316.40625 C-78.56627975 312.25758632 -81.784213 308.12967519 -85 304 C-89.81351723 297.81853877 -94.60424879 291.62078118 -99.375 285.40625 C-102.56627991 281.25758611 -105.78424136 277.12969753 -109 273 C-115.48226799 264.6744784 -121.92074101 256.31663422 -128.34375 247.9453125 C-129.1378125 246.91148437 -129.931875 245.87765625 -130.75 244.8125 C-131.35158936 244.02903198 -131.35158936 244.02903198 -131.96533203 243.22973633 C-135.05287129 239.2152181 -138.16673118 235.22173007 -141.28613281 231.23193359 C-143.66672096 228.1806593 -146.03324417 225.1186135 -148.39941406 222.05615234 C-149.83065716 220.217542 -151.28202879 218.39767362 -152.7421875 216.58203125 C-153.48726562 215.62683594 -154.23234375 214.67164063 -155 213.6875 C-155.9590625 212.48673828 -155.9590625 212.48673828 -156.9375 211.26171875 C-158 209 -158 209 -157.25073242 206.6875 C-155.97395571 203.94403757 -154.57305066 201.35348611 -153.05078125 198.73828125 C-152.4578125 197.71541016 -151.86484375 196.69253906 -151.25390625 195.63867188 C-150.61324219 194.54103516 -149.97257813 193.44339844 -149.3125 192.3125 C-148.6376662 191.15059652 -147.96319344 189.98848329 -147.2890625 188.82617188 C-145.88892911 186.4127596 -144.48724981 184.0002554 -143.08447266 181.58837891 C-139.87508732 176.06732929 -136.68874937 170.53298399 -133.5 165 C-132.2501082 162.83327091 -131.00010785 160.66660444 -129.75 158.5 C-129.13125 157.4275 -128.5125 156.355 -127.875 155.25 C-121 143.33333333 -114.125 131.41666667 -107.25 119.5 C-106.63116943 118.42733887 -106.01233887 117.35467773 -105.37475586 116.24951172 C-104.12564482 114.08442929 -102.87645871 111.91939018 -101.62719727 109.75439453 C-98.48797691 104.31384294 -95.35009437 98.87252784 -92.21484375 93.4296875 C-89.10003254 88.02307287 -85.98087237 82.61898953 -82.85839844 77.21679688 C-81.60783534 75.05213327 -80.35850838 72.8867551 -79.11035156 70.72070312 C-61.2934736 39.81594747 -61.2934736 39.81594747 -50 28 C-49.39929688 27.32453125 -48.79859375 26.6490625 -48.1796875 25.953125 C-35.73473382 12.48456041 -17.70395496 3.93837981 0 0 Z " fill="#01CC9E" transform="translate(667,563)"/>
</svg>
